<svg xmlns="http://www.w3.org/2000/svg" xmlns:svg="http://www.w3.org/2000/svg" id="svg2" width="752.793" height="585.709" version="1.1" viewBox="0 0 752.793 585.709"><defs id="defs4"><marker id="marker8713" orient="auto" refX="0" refY="0" style="overflow:visible"><path id="path8715" d="M 8.7185878,4.0337352 -2.2072895,0.01601326 8.7185884,-4.0017078 c -1.7454984,2.3720609 -1.7354408,5.6174519 -6e-7,8.035443 z" transform="scale(0.6,0.6)" style="fill:#000;fill-opacity:1;fill-rule:evenodd;stroke:#000;stroke-width:.625;stroke-linejoin:round;stroke-opacity:1"/></marker><marker id="marker8655" orient="auto" refX="0" refY="0" style="overflow:visible"><path id="path8657" d="M 8.7185878,4.0337352 -2.2072895,0.01601326 8.7185884,-4.0017078 c -1.7454984,2.3720609 -1.7354408,5.6174519 -6e-7,8.035443 z" transform="scale(0.6,0.6)" style="fill:#000;fill-opacity:1;fill-rule:evenodd;stroke:#000;stroke-width:.625;stroke-linejoin:round;stroke-opacity:1"/></marker><marker id="marker8603" orient="auto" refX="0" refY="0" style="overflow:visible"><path id="path8605" d="M 8.7185878,4.0337352 -2.2072895,0.01601326 8.7185884,-4.0017078 c -1.7454984,2.3720609 -1.7354408,5.6174519 -6e-7,8.035443 z" transform="scale(0.6,0.6)" style="fill:#000;fill-opacity:1;fill-rule:evenodd;stroke:#000;stroke-width:.625;stroke-linejoin:round;stroke-opacity:1"/></marker><marker style="overflow:visible" id="Arrow2Mstart" orient="auto" refX="0" refY="0"><path style="fill:#000;fill-opacity:1;fill-rule:evenodd;stroke:#000;stroke-width:.625;stroke-linejoin:round;stroke-opacity:1" id="path4389" d="M 8.7185878,4.0337352 -2.2072895,0.01601326 8.7185884,-4.0017078 c -1.7454984,2.3720609 -1.7354408,5.6174519 -6e-7,8.035443 z" transform="scale(0.6,0.6)"/></marker><marker style="overflow:visible" id="Arrow2Mend" orient="auto" refX="0" refY="0"><path style="fill:#000;fill-opacity:1;fill-rule:evenodd;stroke:#000;stroke-width:.625;stroke-linejoin:round;stroke-opacity:1" id="path4392" d="M 8.7185878,4.0337352 -2.2072895,0.01601326 8.7185884,-4.0017078 c -1.7454984,2.3720609 -1.7354408,5.6174519 -6e-7,8.035443 z" transform="scale(-0.6,-0.6)"/></marker><marker style="overflow:visible" id="Arrow2Lstart" orient="auto" refX="0" refY="0"><path style="fill:#000;fill-opacity:1;fill-rule:evenodd;stroke:#000;stroke-width:.625;stroke-linejoin:round;stroke-opacity:1" id="path4383" d="M 8.7185878,4.0337352 -2.2072895,0.01601326 8.7185884,-4.0017078 c -1.7454984,2.3720609 -1.7354408,5.6174519 -6e-7,8.035443 z" transform="matrix(1.1,0,0,1.1,1.1,0)"/></marker><marker style="overflow:visible" id="Arrow2Mend-5" orient="auto" refX="0" refY="0"><path style="fill:#000;fill-opacity:1;fill-rule:evenodd;stroke:#000;stroke-width:.625;stroke-linejoin:round;stroke-opacity:1" id="path4392-6" d="M 8.7185878,4.0337352 -2.2072895,0.01601326 8.7185884,-4.0017078 c -1.7454984,2.3720609 -1.7354408,5.6174519 -6e-7,8.035443 z" transform="scale(-0.6,-0.6)"/></marker><marker style="overflow:visible" id="Arrow2Mend-0" orient="auto" refX="0" refY="0"><path style="fill:#000;fill-opacity:1;fill-rule:evenodd;stroke:#000;stroke-width:.625;stroke-linejoin:round;stroke-opacity:1" id="path4392-3" d="M 8.7185878,4.0337352 -2.2072895,0.01601326 8.7185884,-4.0017078 c -1.7454984,2.3720609 -1.7354408,5.6174519 -6e-7,8.035443 z" transform="scale(-0.6,-0.6)"/></marker><marker style="overflow:visible" id="Arrow2Mend-6" orient="auto" refX="0" refY="0"><path style="fill:#000;fill-opacity:1;fill-rule:evenodd;stroke:#000;stroke-width:.625;stroke-linejoin:round;stroke-opacity:1" id="path4392-4" d="M 8.7185878,4.0337352 -2.2072895,0.01601326 8.7185884,-4.0017078 c -1.7454984,2.3720609 -1.7354408,5.6174519 -6e-7,8.035443 z" transform="scale(-0.6,-0.6)"/></marker></defs><metadata id="metadata7"/><g id="layer1" transform="translate(-6.7885698,-1.2936319)"><g id="g4298" transform="translate(-1.0714111,0)"><g id="g4283"><rect id="rect3336" width="320.714" height="89.286" x="222.828" y="169.505" rx="6" ry="6" style="fill:#8c1515;fill-opacity:1;fill-rule:evenodd;stroke:none;stroke-width:1px;stroke-linecap:butt;stroke-linejoin:miter;stroke-opacity:1"/><text id="text3355" x="259.855" y="225.183" xml:space="preserve" style="font-style:normal;font-weight:400;font-size:40px;line-height:125%;font-family:sans-serif;letter-spacing:0;word-spacing:0;fill:#fff;fill-opacity:1;stroke:none;stroke-width:1px;stroke-linecap:butt;stroke-linejoin:miter;stroke-opacity:1"><tspan id="tspan3357" x="259.855" y="225.183">ThingEngine</tspan></text></g><g id="g4291"><rect id="rect3336-7" width="320.714" height="89.286" x="224.971" y="28.434" rx="6" ry="6" style="fill:#8c1515;fill-opacity:1;fill-rule:evenodd;stroke:none;stroke-width:1px;stroke-linecap:butt;stroke-linejoin:miter;stroke-opacity:1"/><text id="text4183" x="309.429" y="87.989" xml:space="preserve" style="font-style:normal;font-weight:400;font-size:40px;line-height:125%;font-family:sans-serif;letter-spacing:0;word-spacing:0;fill:#fff;fill-opacity:1;stroke:none;stroke-width:1px;stroke-linecap:butt;stroke-linejoin:miter;stroke-opacity:1"><tspan id="tspan4185" x="309.429" y="87.989">Sabrina</tspan></text></g></g><g id="g4267"><rect style="fill:#8c1515;fill-opacity:1;fill-rule:evenodd;stroke:none;stroke-width:1px;stroke-linecap:butt;stroke-linejoin:miter;stroke-opacity:1" id="rect3336-7-7" width="320.714" height="89.286" x="33.929" y="328.791" rx="6" ry="6"/><text style="font-style:normal;font-weight:400;font-size:40px;line-height:125%;font-family:sans-serif;letter-spacing:0;word-spacing:0;fill:#fff;fill-opacity:1;stroke:none;stroke-width:1px;stroke-linecap:butt;stroke-linejoin:miter;stroke-opacity:1" id="text4183-3" x="132.713" y="388.346" xml:space="preserve"><tspan id="tspan4185-6" x="132.713" y="388.346">Omlet</tspan></text></g><g id="g4244" transform="translate(0,1.7855797)"><rect style="fill:#8c1515;fill-opacity:1;fill-rule:evenodd;stroke:none;stroke-width:1px;stroke-linecap:butt;stroke-linejoin:miter;stroke-opacity:1" id="rect3336-7-2" width="320.714" height="89.286" x="411.727" y="327.005" rx="6" ry="6"/><text style="font-style:normal;font-weight:400;font-size:40px;line-height:125%;font-family:sans-serif;letter-spacing:0;word-spacing:0;fill:#fff;fill-opacity:1;stroke:none;stroke-width:1px;stroke-linecap:butt;stroke-linejoin:miter;stroke-opacity:1" id="text4183-2" x="428.569" y="382.683" xml:space="preserve"><tspan id="tspan4185-2" x="428.569" y="382.683">ThingManager</tspan></text></g><g id="g4354"><rect style="fill:#8c1515;fill-opacity:1;fill-rule:evenodd;stroke:none;stroke-width:1px;stroke-linecap:butt;stroke-linejoin:miter;stroke-opacity:1" id="rect3336-7-2-5" width="320.714" height="89.286" x="411.727" y="470.576" rx="6" ry="6"/><text style="font-style:normal;font-weight:400;font-size:40px;line-height:125%;font-family:sans-serif;letter-spacing:0;word-spacing:0;fill:#fff;fill-opacity:1;stroke:none;stroke-width:1px;stroke-linecap:butt;stroke-linejoin:miter;stroke-opacity:1" id="text4183-2-1" x="463.93" y="526.255" xml:space="preserve"><tspan id="tspan4185-2-6" x="463.93" y="526.255">ThingPedia</tspan></text></g><path id="path4359" d="m 384.28571,119.50505 0,46.42858" style="fill:none;fill-rule:evenodd;stroke:#000;stroke-width:2.5;stroke-linecap:butt;stroke-linejoin:miter;stroke-miterlimit:4;stroke-dasharray:none;stroke-opacity:1;marker-start:url(#marker8655);marker-end:url(#Arrow2Mend)"/><path id="path4359-8" d="m 570.69506,421.20751 0,45.71429" style="fill:none;fill-rule:evenodd;stroke:#000;stroke-width:2.5;stroke-linecap:butt;stroke-linejoin:miter;stroke-miterlimit:4;stroke-dasharray:none;stroke-opacity:1;marker-start:url(#marker8713);marker-end:url(#Arrow2Mend-5)"/><path id="path4359-0" d="M 345.69507,259.06464 194.2665,328.35036" style="fill:#000;fill-rule:evenodd;stroke:#000;stroke-width:2.5;stroke-linecap:butt;stroke-linejoin:miter;stroke-miterlimit:4;stroke-dasharray:none;stroke-opacity:1;marker-start:url(#marker8603);marker-end:url(#Arrow2Mend-0)"/><path id="path4359-7" d="m 427.83793,259.77893 135.71428,68.57144" style="fill:none;fill-rule:evenodd;stroke:#000;stroke-width:2.5;stroke-linecap:butt;stroke-linejoin:miter;stroke-miterlimit:4;stroke-dasharray:none;stroke-opacity:1;marker-start:url(#Arrow2Mstart);marker-end:url(#Arrow2Mend-6)"/></g></svg>